<?xml version="1.0" standalone="no"?>
<!DOCTYPE svg PUBLIC "-//W3C//DTD SVG 20010904//EN"
 "http://www.w3.org/TR/2001/REC-SVG-20010904/DTD/svg10.dtd">
<svg version="1.0" xmlns="http://www.w3.org/2000/svg"
 width="512.000000pt" height="512.000000pt" viewBox="0 0 512.000000 512.000000"
 preserveAspectRatio="xMidYMid meet">
<metadata>
Created by potrace 1.16, written by Peter Selinger 2001-2019
</metadata>
<g transform="translate(0.000000,512.000000) scale(0.100000,-0.100000)"
fill="#000000" stroke="none">
<path d="M3177 3963 c-4 -104 -7 -337 -7 -520 l0 -332 -72 -3 -73 -3 -7 -42
c-11 -65 -42 -127 -88 -177 l-43 -46 109 0 109 0 107 108 106 107 5 72 c9 121
83 230 187 276 70 31 182 34 253 7 99 -37 180 -135 207 -249 20 -80 -26 -208
-99 -279 l-44 -43 219 3 c204 3 222 5 269 26 87 40 135 98 161 195 9 35 9 47
1 48 -7 0 -65 0 -129 -1 -91 -1 -118 2 -118 12 -1 117 -57 333 -118 455 -77
151 -210 302 -345 391 -112 74 -267 139 -374 158 -65 11 -83 14 -144 19 l-66
5 -6 -187z"/>
<path d="M1237 3930 c-185 -47 -282 -237 -207 -408 29 -67 103 -135 172 -158
73 -24 181 -16 240 19 106 62 152 140 153 258 0 64 -4 84 -30 134 -60 118
-204 185 -328 155z"/>
<path d="M2388 2784 c-235 -234 -433 -424 -440 -422 -6 2 -21 17 -32 32 -17
22 -21 43 -22 104 l-1 77 -39 16 c-22 10 -52 19 -69 21 l-30 3 -5 -155 -5
-155 -95 -3 c-52 -1 -212 -6 -355 -10 -244 -7 -262 -8 -287 -28 -15 -12 -248
-240 -518 -506 l-490 -486 2 -241 3 -241 420 418 c231 229 497 493 591 585
l171 168 507 -1 c499 -1 506 -1 533 20 49 38 107 38 149 -1 21 -20 38 -20 755
-19 l734 0 36 25 c37 24 79 94 79 131 0 47 -33 115 -68 142 l-35 27 -403 5
c-221 3 -404 7 -406 10 -4 5 396 395 602 587 122 114 150 152 150 208 0 43
-28 110 -46 110 -6 0 -204 -190 -440 -423 -235 -232 -435 -421 -442 -420 -29
6 -52 69 -52 144 l0 72 -47 16 c-26 9 -57 16 -70 16 l-23 0 0 -150 c0 -147 0
-150 -22 -154 -41 -8 -502 -17 -536 -10 l-32 7 67 60 c38 34 157 147 265 252
109 104 243 232 298 284 104 99 132 140 132 198 0 40 -30 113 -46 113 -6 0
-203 -192 -438 -426z"/>
<path d="M525 3100 c-4 -6 3 -40 15 -75 26 -79 81 -132 168 -164 58 -21 69
-21 753 -21 l694 0 114 114 c93 94 112 117 106 135 l-6 21 -919 0 c-616 0
-921 -3 -925 -10z"/>
<path d="M4872 2623 c-64 -31 -112 -110 -112 -183 1 -34 32 -100 62 -127 13
-13 42 -31 63 -42 l39 -19 -34 -14 c-84 -36 -140 -125 -127 -204 14 -85 90
-164 159 -164 l28 0 0 385 0 385 -22 0 c-13 0 -38 -8 -56 -17z"/>
<path d="M2673 1564 c3 -20 17 -51 31 -69 94 -123 276 -103 336 38 l23 52 14
-40 c33 -96 135 -151 232 -125 52 14 116 70 133 116 12 34 28 46 28 21 0 -7
12 -31 27 -54 45 -70 133 -105 212 -83 56 15 116 71 134 123 l13 41 26 -55
c28 -62 62 -91 127 -109 58 -15 111 -5 161 32 43 30 86 107 76 134 -4 12 -124
14 -792 14 l-787 0 6 -36z"/>
</g>
</svg>
